<svg xmlns="http://www.w3.org/2000/svg" width="18" height="18" viewBox="0 0 18 18" fill="none">
  <path d="M7.32665 5.21994L7.14153 4.38691C6.91277 3.35745 5.99969 2.625 4.94511 2.625H4.84278C3.61337 2.625 2.59111 3.61906 2.78818 4.83258C3.03206 6.3344 3.54659 7.78962 4.31293 9.11049C5.41266 11.006 6.99401 12.5873 8.88951 13.6871C10.2131 14.455 11.6477 14.9508 13.1347 15.1949C14.3609 15.3962 15.375 14.3676 15.375 13.125V13.0549C15.375 12.0003 14.6426 11.0872 13.6131 10.8585L12.7801 10.6733C12.2943 10.5654 11.787 10.7133 11.4353 11.0653C10.9925 11.5086 10.3095 11.6273 9.78145 11.29C8.5479 10.5021 7.49792 9.4521 6.70996 8.21855C6.37267 7.69052 6.49137 7.00754 6.93466 6.56474C7.28674 6.21303 7.43461 5.70575 7.32665 5.21994Z" stroke="white" stroke-linecap="round" stroke-linejoin="round"/>
</svg>