<svg width="18" height="18" viewBox="0 0 18 18" fill="none" xmlns="http://www.w3.org/2000/svg">
<path d="M15.1875 11.5875V6.4125C15.1875 5.15238 15.1875 4.52232 14.9423 4.04102C14.7266 3.61766 14.3823 3.27345 13.959 3.05774C13.4777 2.8125 12.8476 2.8125 11.5875 2.8125H6.4125C5.15238 2.8125 4.52232 2.8125 4.04102 3.05774C3.61766 3.27345 3.27345 3.61766 3.05774 4.04102C2.8125 4.52232 2.8125 5.15238 2.8125 6.4125V11.5875C2.8125 12.8476 2.8125 13.4777 3.05774 13.959C3.27345 14.3823 3.61766 14.7266 4.04102 14.9423C4.52232 15.1875 5.15238 15.1875 6.4125 15.1875H11.5875C12.8476 15.1875 13.4777 15.1875 13.959 14.9423C14.3823 14.7266 14.7266 14.3823 14.9423 13.959C15.1875 13.4777 15.1875 12.8476 15.1875 11.5875Z" stroke="white" stroke-width="1.125" stroke-linecap="round" stroke-linejoin="round"/>
</svg>
